<?xml version="1.0" encoding="UTF-8" standalone="no"?>
<svg
   width="80"
   height="80"
   viewBox="0 0 80 80"
   fill="none"
   version="1.1"
   id="svg26"
   sodipodi:docname="react.svg"
   inkscape:version="1.2.2 (732a01da63, 2022-12-09)"
   xmlns:inkscape="http://www.inkscape.org/namespaces/inkscape"
   xmlns:sodipodi="http://sodipodi.sourceforge.net/DTD/sodipodi-0.dtd"
   xmlns="http://www.w3.org/2000/svg"
   xmlns:svg="http://www.w3.org/2000/svg">
  <defs
     id="defs30">
    <filter
       inkscape:collect="always"
       style="color-interpolation-filters:sRGB"
       id="filter1506"
       x="-0.014001871"
       y="-0.010498948"
       width="1.0280037"
       height="1.0209979">
      <feGaussianBlur
         inkscape:collect="always"
         stdDeviation="0.25583496"
         id="feGaussianBlur1508" />
    </filter>
    <filter
       inkscape:collect="always"
       style="color-interpolation-filters:sRGB"
       id="filter4500"
       x="-0.011338533"
       y="-0.012743425"
       width="1.0226771"
       height="1.0254869">
      <feGaussianBlur
         inkscape:collect="always"
         stdDeviation="0.15118044"
         id="feGaussianBlur4502" />
    </filter>
  </defs>
  <sodipodi:namedview
     id="namedview28"
     pagecolor="#ffffff"
     bordercolor="#000000"
     borderopacity="0.25"
     inkscape:showpageshadow="2"
     inkscape:pageopacity="0.0"
     inkscape:pagecheckerboard="0"
     inkscape:deskcolor="#d1d1d1"
     showgrid="false"
     inkscape:zoom="5.5625733"
     inkscape:cx="31.100714"
     inkscape:cy="48.898232"
     inkscape:window-width="1920"
     inkscape:window-height="1027"
     inkscape:window-x="-8"
     inkscape:window-y="379"
     inkscape:window-maximized="1"
     inkscape:current-layer="svg26" />
  <g
     id="g3874"
     transform="matrix(1.4032658,0,0,1.4004636,85.378984,425.70535)"
     style="stroke-width:0.713336">
    <path
       id="path2-8"
       d="m 1.93596e-4,0.759277 4.851562004,18 3.837891,3.83789 v 4.09961 l -3.566406,13.193359 4.458984,8.796875 3.5664064,-13.193359 -4.0273434,14.951172 4.6699214,3.341796 -0.197265,1.056641 8.472656,4.398438 8.470703,-4.398438 -0.197265,-1.056641 4.669921,-3.341796 -4.027343,-14.951172 3.568359,13.193359 4.458984,-8.796875 L 35.4416,26.696777 V 22.31787 l 3.558594,-3.558593 4.851562,-18 -8.851562,4.53125 V 13.22998 C 33.454102,12.293408 27.778212,9.1049802 22.0666,9.1049802 c -6.238292,0 -12.4038064,3.7821338 -13.2148444,4.2968748 V 5.290527 Z"
       style="fill:#353535;fill-opacity:1;stroke-width:1.35991;filter:url(#filter1506)"
       transform="matrix(0.52292382,0,0,0.52617508,-49.504725,-301.19483)" />
    <g
       id="g3858"
       style="stroke-width:0.713336">
      <path
         fill-rule="evenodd"
         clip-rule="evenodd"
         d="m -44.960899,-282.51971 2.331576,-8.12567 h 9.326399 l 2.331613,8.12567 z"
         fill="#eed9c3"
         id="path2"
         style="stroke-width:1.35991" />
      <ellipse
         cx="-34.975395"
         cy="-286.52426"
         rx="0.65891021"
         ry="0.65395147"
         fill="#353535"
         id="ellipse4"
         style="stroke-width:1.35991" />
      <path
         fill-rule="evenodd"
         clip-rule="evenodd"
         d="m -39.335948,-287.26776 c 0,-0.22841 -0.18658,-0.41352 -0.416614,-0.41352 -0.52878,0 -1.435844,0 -1.964677,0 -0.229982,0 -0.416613,0.18511 -0.416613,0.41352 0,0.3559 0,0.87471 0,1.28039 0,0.34244 0.279816,0.62015 0.624789,0.62015 0.214033,0 0.463311,0 0.715151,0 0.38665,0 0.757403,-0.15248 1.030996,-0.42394 0.273385,-0.27119 0.426968,-0.63935 0.426968,-1.02304 0,-0.16453 0,-0.32049 0,-0.45356 z"
         fill="#a78347"
         id="path6"
         style="stroke-width:1.35991" />
      <path
         fill-rule="evenodd"
         clip-rule="evenodd"
         d="m -31.202234,-298.41132 4.628555,-2.38399 -2.536912,9.47116 -2.091696,2.1047 z"
         fill="#e3b261"
         id="path8"
         style="stroke-width:1.35991" />
      <path
         fill-rule="evenodd"
         clip-rule="evenodd"
         d="m -44.876086,-298.41132 -4.628538,-2.38399 2.536927,9.47116 2.091695,2.1047 z"
         fill="#e3b261"
         id="path10"
         style="stroke-width:1.35991" />
      <path
         fill-rule="evenodd"
         clip-rule="evenodd"
         d="m -30.971311,-294.08999 c 0,0 -3.497419,-2.31402 -6.994786,-2.31402 -3.497419,0 -6.994802,2.31402 -6.994802,2.31402 v 6.94214 l 0.932651,1.85125 c 0.669185,-2.55863 3.697855,-3.62451 5.806075,-2.0433 l 0.256076,0.19205 0.256076,-0.19205 c 2.108167,-1.58121 5.136837,-0.51533 5.806023,2.0433 l 0.932687,-1.85125 z"
         fill="#e3b261"
         id="path12"
         style="stroke-width:1.35991" />
      <path
         fill-rule="evenodd"
         clip-rule="evenodd"
         d="m -40.29771,-283.67662 -1.865269,10.87599 -2.57198,-1.85124 2.105636,-7.86774 z"
         fill="#d4d4d4"
         id="path14"
         style="stroke-width:1.35991" />
      <path
         fill-rule="evenodd"
         clip-rule="evenodd"
         d="m -35.634484,-283.67662 1.865269,10.87599 2.571948,-1.85124 -2.105657,-7.86774 z"
         fill="#d5d5d5"
         id="path16"
         style="stroke-width:1.35991" />
      <path
         fill-rule="evenodd"
         clip-rule="evenodd"
         d="m -44.960899,-287.14763 -1.865279,6.94214 2.331597,4.62808 1.865258,-6.94215 z"
         fill="#e6e6e6"
         id="path18"
         style="stroke-width:1.35991" />
      <path
         fill-rule="evenodd"
         clip-rule="evenodd"
         d="m -30.971364,-287.14763 1.865322,6.94214 -2.331613,4.62808 -1.865269,-6.94215 z"
         fill="#e6e6e6"
         id="path20"
         style="stroke-width:1.35991" />
      <path
         fill-rule="evenodd"
         clip-rule="evenodd"
         d="m -40.29771,-283.67651 -2.098441,11.33881 4.430002,2.31406 4.430053,-2.31406 -2.098441,-11.33881 -2.157688,-1.07071 -0.173924,-0.0863 z"
         fill="#e6e6e6"
         id="path22"
         style="stroke-width:1.35991" />
      <path
         fill-rule="evenodd"
         clip-rule="evenodd"
         d="m -37.130465,-283.2139 h -1.632097 c 0,0 0,0.27419 0,0.57895 0,0.21474 0.08602,0.42047 0.238976,0.57227 0.152955,0.1518 0.360242,0.2372 0.576628,0.2372 2.09e-4,0 6.8e-4,0 8.89e-4,0 0.216386,0 0.423673,-0.0854 0.576628,-0.2372 0.152955,-0.1518 0.238976,-0.35753 0.238976,-0.57227 0,-0.30476 0,-0.57895 0,-0.57895 z"
         fill="#353535"
         id="path24"
         style="stroke-width:1.35991" />
    </g>
  </g>
  <g
     id="g4506"
     transform="matrix(1.3445145,0,0,1.3454555,-154.6534,27.62642)"
     style="stroke-width:0.743503">
    <path
       id="path4030-3"
       style="fill:#353535;fill-opacity:1;stroke-width:2.32345;filter:url(#filter4500)"
       d="m 157.25928,7.1183907 c -1.60133,-0.0113 -3.65465,1.00316 -5.72265,2.80274 a 21.403956,21.403956 0 0 0 -0.79688,0.7324203 19.483157,19.483157 0 0 0 -0.5293,-0.49024 c -2.88975,-2.5658603 -5.78615,-3.6473903 -7.52539,-2.6406203 -1.66772,0.96543 -2.16295,3.8326803 -1.46093,7.4199203 a 21.37195,21.37195 0 0 0 0.23632,1.06055 c -0.40985,0.11641 -0.8049,0.2391 -1.18359,0.37109 -3.38785,1.18112 -5.55078,3.033051 -5.55078,4.953121 0,1.98326 2.32266,3.9717 5.85156,5.177739 a 18.189737,18.189737 0 0 0 0.86523,0.27148 20.933351,20.933351 0 0 0 -0.25195,1.14258 c -0.6693,3.52494 -0.1477,6.32374 1.51563,7.2832 1.718,0.99064 4.6024,-0.02812 7.41015,-2.48242 0.22192,-0.19402 0.44492,-0.39954 0.66797,-0.61523 a 21.007985,21.007985 0 0 0 0.86524,0.78906 c 2.71966,2.34028 5.40449,3.28624 7.0664,2.32422 1.71644,-0.99361 2.27502,-4.00196 1.55078,-7.66016 -0.0552,-0.27941 -0.11917,-0.56487 -0.1914,-0.85547 0.20252,-0.05978 0.39987,-0.12124 0.59375,-0.18554 3.66852,-1.215389 6.05664,-3.179719 6.05664,-5.189459 0,-1.92701 -2.23337,-3.790701 -5.68945,-4.980461 a 21.436245,21.436245 0 0 0 -1.03126,-0.32422 19.472819,19.472819 0 0 0 0.16016,-0.70313 c 0.77976,-3.78521 0.26842,-6.8340903 -1.47266,-7.8378903 -0.4173,-0.24068 -0.89981,-0.3595 -1.43359,-0.36328 z m 0.0664,1.36719 c 0.26624,0.0119 0.49691,0.0709 0.68554,0.17969 1.0715,0.61803 1.48772,3.1107503 0.81446,6.3789003 a 18.060154,18.060154 0 0 1 -0.14453,0.63672 c -1.32755,-0.30632 -2.76796,-0.53611 -4.27735,-0.67773 -0.87933,-1.25207 -1.79049,-2.38961 -2.70508,-3.375 a 20.098781,20.098781 0 0 1 0.73633,-0.67579 c 1.91955,-1.6705203 3.7369,-2.5183203 4.89063,-2.4667903 z m -13.22461,0.0293 c 1.23155,-0.0503 3.17393,0.86994 5.20117,2.6699303 0.15947,0.14162 0.32001,0.28998 0.48047,0.44336 -0.9296,0.99828 -1.84894,2.13442 -2.72656,3.37304 -1.50501,0.13949 -2.94511,0.36398 -4.26953,0.66407 a 20.042841,20.042841 0 0 1 -0.22071,-0.98438 c -0.60091,-3.07261 -0.20214,-5.3929503 0.80274,-5.9746103 0.20074,-0.1162 0.44821,-0.17978 0.73242,-0.19141 z m 6.63867,4.0898503 c 0.6305,0.68304 1.26362,1.44595 1.88477,2.27344 a 40.254919,40.254919 0 0 0 -3.78321,0 c 0.62172,-0.81985 1.25803,-1.58247 1.89844,-2.27344 z m -0.0137,3.5957 c 0.99078,0 1.96657,0.0388 2.91797,0.11133 a 41.169646,41.169646 0 0 1 1.54297,2.46094 44.811275,44.811275 0 0 1 1.3789,2.568361 41.184091,41.184091 0 0 1 -1.375,2.58984 44.819773,44.819773 0 0 1 -1.53515,2.476559 c -0.94943,0.0678 -1.92985,0.10352 -2.92969,0.10352 -0.99574,0 -1.96559,-0.0313 -2.89844,-0.0918 a 38.77541,38.77541 0 0 1 -1.56445,-2.480469 38.426457,38.426457 0 0 1 -1.36524,-2.57812 38.784757,38.784757 0 0 1 1.36133,-2.580081 38.414844,38.414844 0 0 1 1.55274,-2.4707 c 0.95167,-0.0719 1.92767,-0.10938 2.91406,-0.10938 z m -4.66992,0.28516 a 40.190482,40.190482 0 0 0 -0.98047,1.61133 40.395831,40.395831 0 0 0 -0.9043,1.656251 c -0.39809,-0.944181 -0.73748,-1.873091 -1.01562,-2.769531 0.91301,-0.20436 1.88597,-0.3713 2.90039,-0.49805 z m 9.33984,0.002 c 1.02108,0.12887 1.99941,0.30003 2.91797,0.50977 -0.27574,0.88386 -0.61869,1.80842 -1.02344,2.755861 a 47.643969,47.643969 0 0 0 -0.92187,-1.664071 43.474944,43.474944 0 0 0 -0.97266,-1.60156 z m -13.56836,0.83203 c 0.40051,1.30248 0.92666,2.663901 1.56055,4.041021 -0.64211,1.39766 -1.17589,2.78184 -1.58008,4.09961 a 16.83981,16.83981 0 0 1 -0.78906,-0.24805 c -1.56037,-0.53335 -2.84916,-1.22617 -3.73242,-1.98242 -0.79365,-0.67978 -1.19532,-1.3547 -1.19532,-1.90235 0,-1.16509 1.73736,-2.651941 4.63477,-3.662101 a 19.724337,19.724337 0 0 1 1.10156,-0.34571 z m 17.8125,0.0195 c 0.32729,0.0949 0.64499,0.1953 0.95117,0.30078 2.96129,1.01925 4.76758,2.526231 4.76758,3.687501 0,1.23706 -1.9518,2.84303 -5.11914,3.89258 -0.1749,0.0579 -0.35414,0.11373 -0.53711,0.16797 -0.40503,-1.28209 -0.95236,-2.64627 -1.62109,-4.05469 0.63828,-1.37512 1.16488,-2.720271 1.55859,-3.994141 z m -8.91406,1.13086 c -1.57808,0 -2.85742,1.279351 -2.85742,2.857421 0,1.57822 1.27934,2.85743 2.85742,2.85743 1.57822,0 2.85742,-1.27921 2.85742,-2.85743 0,-1.57807 -1.2792,-2.857421 -2.85742,-2.857421 z m 6.57617,4.449221 c 0.4277,0.97491 0.78981,1.91758 1.07617,2.814459 -0.9279,0.2117 -1.93083,0.3812 -2.98633,0.50781 a 47.802158,47.802158 0 0 0 0.98243,-1.626959 43.425377,43.425377 0 0 0 0.92773,-1.69531 z m -13.12891,0.04883 a 40.148562,40.148562 0 0 0 0.90821,1.65625 40.40008,40.40008 0 0 0 1.0039,1.642579 c -1.04799,-0.11698 -2.03647,-0.27592 -2.94922,-0.47461 0.28254,-0.912319 0.63052,-1.859779 1.03711,-2.824219 z m 14.58008,4.082029 c 0.0652,0.26342 0.12189,0.52093 0.17188,0.77344 0.32021,1.61759 0.36644,3.08131 0.15429,4.22461 -0.19062,1.02731 -0.573,1.71201 -1.04687,1.98633 -1.00848,0.58376 -3.16649,-0.17442 -5.49219,-2.17578 -0.26667,-0.22943 -0.53533,-0.47521 -0.80469,-0.73438 0.90169,-0.98624 1.80414,-2.13308 2.6836,-3.40625 1.54706,-0.13723 3.00855,-0.36164 4.33398,-0.66797 z m -15.98633,0.06055 c 1.3107,0.2899 2.76178,0.49924 4.3125,0.625 0.88527,1.24583 1.81363,2.39172 2.74805,3.39453 a 16.833437,16.833437 0 0 1 -0.61133,0.56055 c -1.24159,1.08538 -2.4856,1.85484 -3.58203,2.24218 -0.98526,0.34796 -1.76985,0.35746 -2.24414,0.08399 -1.00947,-0.58206 -1.42776,-2.82936 -0.85547,-5.84375 a 19.615431,19.615431 0 0 1 0.23242,-1.0625 z m 9.89063,0.72461 c -0.62313,0.84689 -1.25267,1.62101 -1.87891,2.31054 -0.64792,-0.69917 -1.29457,-1.47294 -1.92578,-2.30468 0.61265,0.0241 1.23816,0.03711 1.87305,0.03711 0.6523,0 1.29704,-0.01467 1.93164,-0.04297 z" />
    <path
       id="path4030"
       style="fill:#53c1de;fill-opacity:1;stroke-width:2.32345"
       d="m 157.25928,7.1183907 c -1.60133,-0.0113 -3.65465,1.00316 -5.72265,2.80274 a 21.403956,21.403956 0 0 0 -0.79688,0.7324203 19.483157,19.483157 0 0 0 -0.5293,-0.49024 c -2.88975,-2.5658603 -5.78615,-3.6473903 -7.52539,-2.6406203 -1.66772,0.96543 -2.16295,3.8326803 -1.46093,7.4199203 a 21.37195,21.37195 0 0 0 0.23632,1.06055 c -0.40985,0.11641 -0.8049,0.2391 -1.18359,0.37109 -3.38785,1.18112 -5.55078,3.033051 -5.55078,4.953121 0,1.98326 2.32266,3.9717 5.85156,5.177739 a 18.189737,18.189737 0 0 0 0.86523,0.27148 20.933351,20.933351 0 0 0 -0.25195,1.14258 c -0.6693,3.52494 -0.1477,6.32374 1.51563,7.2832 1.718,0.99064 4.6024,-0.02812 7.41015,-2.48242 0.22192,-0.19402 0.44492,-0.39954 0.66797,-0.61523 a 21.007985,21.007985 0 0 0 0.86524,0.78906 c 2.71966,2.34028 5.40449,3.28624 7.0664,2.32422 1.71644,-0.99361 2.27502,-4.00196 1.55078,-7.66016 -0.0552,-0.27941 -0.11917,-0.56487 -0.1914,-0.85547 0.20252,-0.05978 0.39987,-0.12124 0.59375,-0.18554 3.66852,-1.215389 6.05664,-3.179719 6.05664,-5.189459 0,-1.92701 -2.23337,-3.790701 -5.68945,-4.980461 a 21.436245,21.436245 0 0 0 -1.03126,-0.32422 19.472819,19.472819 0 0 0 0.16016,-0.70313 c 0.77976,-3.78521 0.26842,-6.8340903 -1.47266,-7.8378903 -0.4173,-0.24068 -0.89981,-0.3595 -1.43359,-0.36328 z m 0.0664,1.36719 c 0.26624,0.0119 0.49691,0.0709 0.68554,0.17969 1.0715,0.61803 1.48772,3.1107503 0.81446,6.3789003 a 18.060154,18.060154 0 0 1 -0.14453,0.63672 c -1.32755,-0.30632 -2.76796,-0.53611 -4.27735,-0.67773 -0.87933,-1.25207 -1.79049,-2.38961 -2.70508,-3.375 a 20.098781,20.098781 0 0 1 0.73633,-0.67579 c 1.91955,-1.6705203 3.7369,-2.5183203 4.89063,-2.4667903 z m -13.22461,0.0293 c 1.23155,-0.0503 3.17393,0.86994 5.20117,2.6699303 0.15947,0.14162 0.32001,0.28998 0.48047,0.44336 -0.9296,0.99828 -1.84894,2.13442 -2.72656,3.37304 -1.50501,0.13949 -2.94511,0.36398 -4.26953,0.66407 a 20.042841,20.042841 0 0 1 -0.22071,-0.98438 c -0.60091,-3.07261 -0.20214,-5.3929503 0.80274,-5.9746103 0.20074,-0.1162 0.44821,-0.17978 0.73242,-0.19141 z m 6.63867,4.0898503 c 0.6305,0.68304 1.26362,1.44595 1.88477,2.27344 a 40.254919,40.254919 0 0 0 -3.78321,0 c 0.62172,-0.81985 1.25803,-1.58247 1.89844,-2.27344 z m -0.0137,3.5957 c 0.99078,0 1.96657,0.0388 2.91797,0.11133 a 41.169646,41.169646 0 0 1 1.54297,2.46094 44.811275,44.811275 0 0 1 1.3789,2.568361 41.184091,41.184091 0 0 1 -1.375,2.58984 44.819773,44.819773 0 0 1 -1.53515,2.476559 c -0.94943,0.0678 -1.92985,0.10352 -2.92969,0.10352 -0.99574,0 -1.96559,-0.0313 -2.89844,-0.0918 a 38.77541,38.77541 0 0 1 -1.56445,-2.480469 38.426457,38.426457 0 0 1 -1.36524,-2.57812 38.784757,38.784757 0 0 1 1.36133,-2.580081 38.414844,38.414844 0 0 1 1.55274,-2.4707 c 0.95167,-0.0719 1.92767,-0.10938 2.91406,-0.10938 z m -4.66992,0.28516 a 40.190482,40.190482 0 0 0 -0.98047,1.61133 40.395831,40.395831 0 0 0 -0.9043,1.656251 c -0.39809,-0.944181 -0.73748,-1.873091 -1.01562,-2.769531 0.91301,-0.20436 1.88597,-0.3713 2.90039,-0.49805 z m 9.33984,0.002 c 1.02108,0.12887 1.99941,0.30003 2.91797,0.50977 -0.27574,0.88386 -0.61869,1.80842 -1.02344,2.755861 a 47.643969,47.643969 0 0 0 -0.92187,-1.664071 43.474944,43.474944 0 0 0 -0.97266,-1.60156 z m -13.56836,0.83203 c 0.40051,1.30248 0.92666,2.663901 1.56055,4.041021 -0.64211,1.39766 -1.17589,2.78184 -1.58008,4.09961 a 16.83981,16.83981 0 0 1 -0.78906,-0.24805 c -1.56037,-0.53335 -2.84916,-1.22617 -3.73242,-1.98242 -0.79365,-0.67978 -1.19532,-1.3547 -1.19532,-1.90235 0,-1.16509 1.73736,-2.651941 4.63477,-3.662101 a 19.724337,19.724337 0 0 1 1.10156,-0.34571 z m 17.8125,0.0195 c 0.32729,0.0949 0.64499,0.1953 0.95117,0.30078 2.96129,1.01925 4.76758,2.526231 4.76758,3.687501 0,1.23706 -1.9518,2.84303 -5.11914,3.89258 -0.1749,0.0579 -0.35414,0.11373 -0.53711,0.16797 -0.40503,-1.28209 -0.95236,-2.64627 -1.62109,-4.05469 0.63828,-1.37512 1.16488,-2.720271 1.55859,-3.994141 z m -8.91406,1.13086 c -1.57808,0 -2.85742,1.279351 -2.85742,2.857421 0,1.57822 1.27934,2.85743 2.85742,2.85743 1.57822,0 2.85742,-1.27921 2.85742,-2.85743 0,-1.57807 -1.2792,-2.857421 -2.85742,-2.857421 z m 6.57617,4.449221 c 0.4277,0.97491 0.78981,1.91758 1.07617,2.814459 -0.9279,0.2117 -1.93083,0.3812 -2.98633,0.50781 a 47.802158,47.802158 0 0 0 0.98243,-1.626959 43.425377,43.425377 0 0 0 0.92773,-1.69531 z m -13.12891,0.04883 a 40.148562,40.148562 0 0 0 0.90821,1.65625 40.40008,40.40008 0 0 0 1.0039,1.642579 c -1.04799,-0.11698 -2.03647,-0.27592 -2.94922,-0.47461 0.28254,-0.912319 0.63052,-1.859779 1.03711,-2.824219 z m 14.58008,4.082029 c 0.0652,0.26342 0.12189,0.52093 0.17188,0.77344 0.32021,1.61759 0.36644,3.08131 0.15429,4.22461 -0.19062,1.02731 -0.573,1.71201 -1.04687,1.98633 -1.00848,0.58376 -3.16649,-0.17442 -5.49219,-2.17578 -0.26667,-0.22943 -0.53533,-0.47521 -0.80469,-0.73438 0.90169,-0.98624 1.80414,-2.13308 2.6836,-3.40625 1.54706,-0.13723 3.00855,-0.36164 4.33398,-0.66797 z m -15.98633,0.06055 c 1.3107,0.2899 2.76178,0.49924 4.3125,0.625 0.88527,1.24583 1.81363,2.39172 2.74805,3.39453 a 16.833437,16.833437 0 0 1 -0.61133,0.56055 c -1.24159,1.08538 -2.4856,1.85484 -3.58203,2.24218 -0.98526,0.34796 -1.76985,0.35746 -2.24414,0.08399 -1.00947,-0.58206 -1.42776,-2.82936 -0.85547,-5.84375 a 19.615431,19.615431 0 0 1 0.23242,-1.0625 z m 9.89063,0.72461 c -0.62313,0.84689 -1.25267,1.62101 -1.87891,2.31054 -0.64792,-0.69917 -1.29457,-1.47294 -1.92578,-2.30468 0.61265,0.0241 1.23816,0.03711 1.87305,0.03711 0.6523,0 1.29704,-0.01467 1.93164,-0.04297 z" />
  </g>
</svg>
