<?xml version="1.0" encoding="UTF-8" standalone="no"?>
<svg
   width="80"
   height="80"
   viewBox="0 0 80 80"
   fill="none"
   version="1.1"
   id="svg26"
   sodipodi:docname="ruby.svg"
   inkscape:version="1.2.2 (732a01da63, 2022-12-09)"
   xml:space="preserve"
   xmlns:inkscape="http://www.inkscape.org/namespaces/inkscape"
   xmlns:sodipodi="http://sodipodi.sourceforge.net/DTD/sodipodi-0.dtd"
   xmlns="http://www.w3.org/2000/svg"
   xmlns:svg="http://www.w3.org/2000/svg"><defs
     id="defs30"><filter
       inkscape:collect="always"
       style="color-interpolation-filters:sRGB"
       id="filter1506"
       x="-0.014001871"
       y="-0.010498948"
       width="1.0280037"
       height="1.0209979"><feGaussianBlur
         inkscape:collect="always"
         stdDeviation="0.25583496"
         id="feGaussianBlur1508" /></filter><filter
       inkscape:collect="always"
       style="color-interpolation-filters:sRGB"
       id="filter32846"
       x="-0.010552265"
       y="-0.01390815"
       width="1.0211045"
       height="1.0278163"><feGaussianBlur
         inkscape:collect="always"
         stdDeviation="0.1934582"
         id="feGaussianBlur32848" /></filter></defs><sodipodi:namedview
     id="namedview28"
     pagecolor="#ffffff"
     bordercolor="#000000"
     borderopacity="0.25"
     inkscape:showpageshadow="2"
     inkscape:pageopacity="0.0"
     inkscape:pagecheckerboard="0"
     inkscape:deskcolor="#d1d1d1"
     showgrid="false"
     inkscape:zoom="7.8666667"
     inkscape:cx="39.661017"
     inkscape:cy="50.084746"
     inkscape:window-width="1920"
     inkscape:window-height="1027"
     inkscape:window-x="-8"
     inkscape:window-y="379"
     inkscape:window-maximized="1"
     inkscape:current-layer="svg26"
     showguides="false" /><g
     id="g3874"
     transform="matrix(1.4032658,0,0,1.4004636,85.378984,425.70535)"
     style="stroke-width:0.713336"><path
       id="path2-8"
       d="m 1.93596e-4,0.759277 4.851562004,18 3.837891,3.83789 v 4.09961 l -3.566406,13.193359 4.458984,8.796875 3.5664064,-13.193359 -4.0273434,14.951172 4.6699214,3.341796 -0.197265,1.056641 8.472656,4.398438 8.470703,-4.398438 -0.197265,-1.056641 4.669921,-3.341796 -4.027343,-14.951172 3.568359,13.193359 4.458984,-8.796875 L 35.4416,26.696777 V 22.31787 l 3.558594,-3.558593 4.851562,-18 -8.851562,4.53125 V 13.22998 C 33.454102,12.293408 27.778212,9.1049802 22.0666,9.1049802 c -6.238292,0 -12.4038064,3.7821338 -13.2148444,4.2968748 V 5.290527 Z"
       style="fill:#353535;fill-opacity:1;stroke-width:1.35991;filter:url(#filter1506)"
       transform="matrix(0.52292382,0,0,0.52617508,-49.504725,-301.19483)" /><g
       id="g3858"
       style="stroke-width:0.713336"><path
         fill-rule="evenodd"
         clip-rule="evenodd"
         d="m -44.960899,-282.51971 2.331576,-8.12567 h 9.326399 l 2.331613,8.12567 z"
         fill="#eed9c3"
         id="path2"
         style="stroke-width:1.35991" /><ellipse
         cx="-34.975395"
         cy="-286.52426"
         rx="0.65891021"
         ry="0.65395147"
         fill="#353535"
         id="ellipse4"
         style="stroke-width:1.35991" /><path
         fill-rule="evenodd"
         clip-rule="evenodd"
         d="m -39.335948,-287.26776 c 0,-0.22841 -0.18658,-0.41352 -0.416614,-0.41352 -0.52878,0 -1.435844,0 -1.964677,0 -0.229982,0 -0.416613,0.18511 -0.416613,0.41352 0,0.3559 0,0.87471 0,1.28039 0,0.34244 0.279816,0.62015 0.624789,0.62015 0.214033,0 0.463311,0 0.715151,0 0.38665,0 0.757403,-0.15248 1.030996,-0.42394 0.273385,-0.27119 0.426968,-0.63935 0.426968,-1.02304 0,-0.16453 0,-0.32049 0,-0.45356 z"
         fill="#a78347"
         id="path6"
         style="stroke-width:1.35991" /><path
         fill-rule="evenodd"
         clip-rule="evenodd"
         d="m -31.202234,-298.41132 4.628555,-2.38399 -2.536912,9.47116 -2.091696,2.1047 z"
         fill="#e3b261"
         id="path8"
         style="stroke-width:1.35991" /><path
         fill-rule="evenodd"
         clip-rule="evenodd"
         d="m -44.876086,-298.41132 -4.628538,-2.38399 2.536927,9.47116 2.091695,2.1047 z"
         fill="#e3b261"
         id="path10"
         style="stroke-width:1.35991" /><path
         fill-rule="evenodd"
         clip-rule="evenodd"
         d="m -30.971311,-294.08999 c 0,0 -3.497419,-2.31402 -6.994786,-2.31402 -3.497419,0 -6.994802,2.31402 -6.994802,2.31402 v 6.94214 l 0.932651,1.85125 c 0.669185,-2.55863 3.697855,-3.62451 5.806075,-2.0433 l 0.256076,0.19205 0.256076,-0.19205 c 2.108167,-1.58121 5.136837,-0.51533 5.806023,2.0433 l 0.932687,-1.85125 z"
         fill="#e3b261"
         id="path12"
         style="stroke-width:1.35991" /><path
         fill-rule="evenodd"
         clip-rule="evenodd"
         d="m -40.29771,-283.67662 -1.865269,10.87599 -2.57198,-1.85124 2.105636,-7.86774 z"
         fill="#d4d4d4"
         id="path14"
         style="stroke-width:1.35991" /><path
         fill-rule="evenodd"
         clip-rule="evenodd"
         d="m -35.634484,-283.67662 1.865269,10.87599 2.571948,-1.85124 -2.105657,-7.86774 z"
         fill="#d5d5d5"
         id="path16"
         style="stroke-width:1.35991" /><path
         fill-rule="evenodd"
         clip-rule="evenodd"
         d="m -44.960899,-287.14763 -1.865279,6.94214 2.331597,4.62808 1.865258,-6.94215 z"
         fill="#e6e6e6"
         id="path18"
         style="stroke-width:1.35991" /><path
         fill-rule="evenodd"
         clip-rule="evenodd"
         d="m -30.971364,-287.14763 1.865322,6.94214 -2.331613,4.62808 -1.865269,-6.94215 z"
         fill="#e6e6e6"
         id="path20"
         style="stroke-width:1.35991" /><path
         fill-rule="evenodd"
         clip-rule="evenodd"
         d="m -40.29771,-283.67651 -2.098441,11.33881 4.430002,2.31406 4.430053,-2.31406 -2.098441,-11.33881 -2.157688,-1.07071 -0.173924,-0.0863 z"
         fill="#e6e6e6"
         id="path22"
         style="stroke-width:1.35991" /><path
         fill-rule="evenodd"
         clip-rule="evenodd"
         d="m -37.130465,-283.2139 h -1.632097 c 0,0 0,0.27419 0,0.57895 0,0.21474 0.08602,0.42047 0.238976,0.57227 0.152955,0.1518 0.360242,0.2372 0.576628,0.2372 2.09e-4,0 6.8e-4,0 8.89e-4,0 0.216386,0 0.423673,-0.0854 0.576628,-0.2372 0.152955,-0.1518 0.238976,-0.35753 0.238976,-0.57227 0,-0.30476 0,-0.57895 0,-0.57895 z"
         fill="#353535"
         id="path24"
         style="stroke-width:1.35991" /></g></g><g
     id="g32852"
     transform="translate(-250.92632,-21.555664)"><path
       id="path29812-8-3"
       style="fill:#353535;fill-opacity:1;stroke:none;stroke-width:2;stroke-linejoin:round;stroke-miterlimit:15;stroke-dasharray:none;paint-order:fill markers stroke;filter:url(#filter32846)"
       d="m 292.75554,61.22182 -7.85595,3.742089 v 0.371771 3.568392 l 8.03269,3.825887 h 11.98656 l 8.03269,-3.825887 V 65.33568 64.963909 l -7.85747,-3.742089 z m -9.41617,4.903112 -4.98692,5.044808 4.98692,-2.273288 z m 31.17238,0 v 2.769997 l 4.98539,2.273288 z m -29.71425,4.459726 -0.85782,9.681281 7.41714,-6.559318 z m 28.25612,0 -6.5578,3.121963 7.41562,6.557795 z m -31.36589,0.778586 -4.5542,2.076737 -0.20721,0.09447 0.50738,3.556202 z m 34.47566,0 4.25403,5.727405 0.5089,-3.556202 -0.20873,-0.09447 z m -33.06628,0.717639 -4.87721,6.568462 4.0331,2.957406 z m 31.6569,0 0.84258,9.525868 4.03463,-2.957406 z m -20.69423,2.209295 4.86654,9.082483 4.86502,-9.082483 z m -1.05894,1.328624 -2.17425,8.145443 6.75282,0.400719 z m 11.84944,0 -4.57857,8.546162 6.75282,-0.400718 z m -13.51479,0.188933 -6.82443,6.035186 4.77817,1.634877 z m 15.18014,0 2.04779,7.670062 4.77817,-1.634876 z m -22.13103,7.641113 11.55384,10.772212 -6.58065,-9.053538 -0.48604,-0.129506 0.0137,-0.05024 z m 29.07888,0.0016 -4.49629,1.538891 0.0137,0.04876 -0.48604,0.129506 -6.57456,9.044394 z m -22.03505,1.912182 6.71778,9.242471 v -8.844796 z m 14.99578,0 -6.71778,0.397676 v 8.844795 z" /><path
       id="path29812-8"
       style="fill:#cc342d;fill-opacity:1;stroke:none;stroke-width:2;stroke-linejoin:round;stroke-miterlimit:15;stroke-dasharray:none;paint-order:fill markers stroke"
       d="m 292.75554,61.22182 -7.85595,3.742089 v 0.371771 3.568392 l 8.03269,3.825887 h 11.98656 l 8.03269,-3.825887 V 65.33568 64.963909 l -7.85747,-3.742089 z m -9.41617,4.903112 -4.98692,5.044808 4.98692,-2.273288 z m 31.17238,0 v 2.769997 l 4.98539,2.273288 z m -29.71425,4.459726 -0.85782,9.681281 7.41714,-6.559318 z m 28.25612,0 -6.5578,3.121963 7.41562,6.557795 z m -31.36589,0.778586 -4.5542,2.076737 -0.20721,0.09447 0.50738,3.556202 z m 34.47566,0 4.25403,5.727405 0.5089,-3.556202 -0.20873,-0.09447 z m -33.06628,0.717639 -4.87721,6.568462 4.0331,2.957406 z m 31.6569,0 0.84258,9.525868 4.03463,-2.957406 z m -20.69423,2.209295 4.86654,9.082483 4.86502,-9.082483 z m -1.05894,1.328624 -2.17425,8.145443 6.75282,0.400719 z m 11.84944,0 -4.57857,8.546162 6.75282,-0.400718 z m -13.51479,0.188933 -6.82443,6.035186 4.77817,1.634877 z m 15.18014,0 2.04779,7.670062 4.77817,-1.634876 z m -22.13103,7.641113 11.55384,10.772212 -6.58065,-9.053538 -0.48604,-0.129506 0.0137,-0.05024 z m 29.07888,0.0016 -4.49629,1.538891 0.0137,0.04876 -0.48604,0.129506 -6.57456,9.044394 z m -22.03505,1.912182 6.71778,9.242471 v -8.844796 z m 14.99578,0 -6.71778,0.397676 v 8.844795 z" /></g></svg>
